<svg xmlns="http://www.w3.org/2000/svg" viewBox="0 0 50 50"><defs><style>.cls-1{fill:#fff;}</style></defs><g id="Layer_1" data-name="Layer 1"><circle cx="25" cy="25" r="24"/></g><g id="Layer_2" data-name="Layer 2"><path class="cls-1" d="M39.18,22.88l-3.2-1a10.75,10.75,0,0,0-.92-2.25l1.6-3a.59.59,0,0,0-.12-.7l-2.36-2.32a.59.59,0,0,0-.71-.11l-3,1.6a11.31,11.31,0,0,0-2.28-1l-1-3.2a.58.58,0,0,0-.57-.4h-3.2a.58.58,0,0,0-.56.41l-1,3.2a11.37,11.37,0,0,0-2.3,1l-2.91-1.6a.61.61,0,0,0-.71.11l-2.35,2.31a.59.59,0,0,0-.11.7l1.6,2.91a11.37,11.37,0,0,0-1,2.3l-3.2,1a.59.59,0,0,0-.41.56v3.2a.59.59,0,0,0,.41.56l3.2,1a11.36,11.36,0,0,0,1,2.26l-1.6,3a.59.59,0,0,0,.11.7l2.26,2.4a.58.58,0,0,0,.7.11l3-1.6a11.14,11.14,0,0,0,2.23.92l1,3.19a.59.59,0,0,0,.56.42h3.2a.59.59,0,0,0,.56-.42l1-3.19a11.13,11.13,0,0,0,2.2-.92l3,1.6a.58.58,0,0,0,.7-.11l2.32-2.32a.59.59,0,0,0,.11-.7l-1.6-3a11.09,11.09,0,0,0,.93-2.22l3.2-1a.58.58,0,0,0,.41-.56V23.45A.56.56,0,0,0,39.18,22.88ZM25,30.43a5.33,5.33,0,1,1,5.28-5.38v.05A5.33,5.33,0,0,1,25,30.43Z"/></g></svg>