<svg id="Layer_1" data-name="Layer 1" xmlns="http://www.w3.org/2000/svg" viewBox="0 0 400 368"><defs><style>.cls-1{fill:#575f64;}.cls-2{fill:#ff502e;}.cls-3{fill:#e72b00;}.cls-4{fill:#474f54;}.cls-5{fill:#fff;}</style></defs><polygon class="cls-1" points="111.47 344.15 88.04 368 0 368 0 285 200 285 200 344.15 111.47 344.15"/><rect class="cls-2" y="40" width="200" height="245"/><rect class="cls-3" x="200" y="40" width="200" height="245"/><polygon class="cls-4" points="288.52 344.15 311.96 368 400 368 400 285 200 285 200 344.15 288.52 344.15"/><path class="cls-4" d="M256,150.52V319.2a84.34,84.34,0,0,0,0-168.68Z" transform="translate(-56 -72)"/><path class="cls-1" d="M171.66,234.86A84.34,84.34,0,0,0,256,319.2V150.52A84.34,84.34,0,0,0,171.66,234.86Z" transform="translate(-56 -72)"/><polygon class="cls-5" points="191.47 116.32 229.69 116.32 203.96 151.34 228.32 151.34 172.75 215.75 191.32 171.74 170.31 171.74 191.47 116.32"/><rect class="cls-1" x="109.5" width="181" height="15"/><polygon class="cls-1" points="89.5 0 89.5 40 109.5 40 109.5 14.48 109.5 0 89.5 0"/><polygon class="cls-1" points="290.5 0 290.5 14.48 290.5 40 310.5 40 310.5 0 290.5 0"/></svg>